<svg width="20" height="20" viewBox="0 0 20 20" fill="none" xmlns="http://www.w3.org/2000/svg">
<path d="M10 20C15.5228 20 20 15.5228 20 10C20 4.47715 15.5228 0 10 0C4.47715 0 0 4.47715 0 10C0 15.5228 4.47715 20 10 20Z" fill="#009688"/>
<path fill-rule="evenodd" clip-rule="evenodd" d="M10 3.33333C13.7555 3.33333 16.6667 6.08426 16.6667 9.79999C16.6667 13.5157 13.7555 16.2667 10 16.2667C9.32544 16.2667 8.67828 16.1776 8.07021 16.0104C7.95201 15.9778 7.82631 15.9871 7.71414 16.0366L6.39091 16.6207C6.04478 16.7735 5.65404 16.5273 5.64244 16.1491L5.60614 14.9631C5.60168 14.8171 5.53594 14.6805 5.42704 14.5831C4.12988 13.423 3.33334 11.7436 3.33334 9.79999C3.33334 6.08426 6.24448 3.33333 10 3.33333ZM5.99671 11.6911C5.80877 11.9893 6.17527 12.3253 6.45604 12.1122L8.55961 10.5158C8.70191 10.4078 8.89854 10.4072 9.04144 10.5144L10.599 11.6826C11.0664 12.0331 11.7335 11.91 12.045 11.4158L14.0033 8.30884C14.1912 8.01067 13.8247 7.67467 13.544 7.88774L11.4404 9.48421C11.2981 9.59221 11.1015 9.59277 10.9586 9.48557L9.40101 8.31741C8.93361 7.96688 8.26654 8.08994 7.95504 8.58421L5.99671 11.6911Z" fill="white"/>
</svg>
