<svg width="20" height="20" viewBox="0 0 20 20" fill="none" xmlns="http://www.w3.org/2000/svg">
<path d="M10 0C7.34784 0 4.8043 1.05357 2.92893 2.92893C1.05357 4.8043 0 7.34784 0 10C0 12.6522 1.05357 15.1957 2.92893 17.0711C4.8043 18.9464 7.34784 20 10 20C12.6522 20 15.1957 18.9464 17.0711 17.0711C18.9464 15.1957 20 12.6522 20 10C20 9.44444 19.9556 8.88889 19.8556 8.33333C19.5556 7.77778 18.8889 7.77778 18.8889 7.77778H16.6667V6.66667C16.6667 5.55556 15.5556 5.55556 15.5556 5.55556H13.3333V4.44444C13.3333 3.33333 12.2222 3.33333 12.2222 3.33333H11.1111V1.11111C11.1111 0 10 0 10 0ZM7.22222 3.33333C7.66425 3.33333 8.08817 3.50893 8.40073 3.82149C8.71329 4.13405 8.88889 4.55797 8.88889 5C8.88889 5.44203 8.71329 5.86595 8.40073 6.17851C8.08817 6.49107 7.66425 6.66667 7.22222 6.66667C6.7802 6.66667 6.35627 6.49107 6.04371 6.17851C5.73115 5.86595 5.55556 5.44203 5.55556 5C5.55556 4.55797 5.73115 4.13405 6.04371 3.82149C6.35627 3.50893 6.7802 3.33333 7.22222 3.33333ZM3.88889 7.77778C4.33092 7.77778 4.75484 7.95337 5.0674 8.26593C5.37996 8.57849 5.55556 9.00242 5.55556 9.44444C5.55556 9.88647 5.37996 10.3104 5.0674 10.623C4.75484 10.9355 4.33092 11.1111 3.88889 11.1111C3.44686 11.1111 3.02294 10.9355 2.71038 10.623C2.39782 10.3104 2.22222 9.88647 2.22222 9.44444C2.22222 9.00242 2.39782 8.57849 2.71038 8.26593C3.02294 7.95337 3.44686 7.77778 3.88889 7.77778V7.77778ZM9.44444 8.88889C9.88647 8.88889 10.3104 9.06448 10.623 9.37704C10.9355 9.68961 11.1111 10.1135 11.1111 10.5556C11.1111 10.9976 10.9355 11.4215 10.623 11.7341C10.3104 12.0466 9.88647 12.2222 9.44444 12.2222C9.00242 12.2222 8.57849 12.0466 8.26593 11.7341C7.95337 11.4215 7.77778 10.9976 7.77778 10.5556C7.77778 10.1135 7.95337 9.68961 8.26593 9.37704C8.57849 9.06448 9.00242 8.88889 9.44444 8.88889V8.88889ZM15 11.1111C15.442 11.1111 15.866 11.2867 16.1785 11.5993C16.4911 11.9118 16.6667 12.3358 16.6667 12.7778C16.6667 13.2198 16.4911 13.6437 16.1785 13.9563C15.866 14.2689 15.442 14.4444 15 14.4444C14.558 14.4444 14.134 14.2689 13.8215 13.9563C13.5089 13.6437 13.3333 13.2198 13.3333 12.7778C13.3333 12.3358 13.5089 11.9118 13.8215 11.5993C14.134 11.2867 14.558 11.1111 15 11.1111ZM8.88889 14.4444C9.33092 14.4444 9.75484 14.62 10.0674 14.9326C10.38 15.2452 10.5556 15.6691 10.5556 16.1111C10.5556 16.5531 10.38 16.9771 10.0674 17.2896C9.75484 17.6022 9.33092 17.7778 8.88889 17.7778C8.44686 17.7778 8.02294 17.6022 7.71038 17.2896C7.39782 16.9771 7.22222 16.5531 7.22222 16.1111C7.22222 15.6691 7.39782 15.2452 7.71038 14.9326C8.02294 14.62 8.44686 14.4444 8.88889 14.4444V14.4444Z" fill="white"/>
</svg>
